<?xml version="1.0" encoding="UTF-8" standalone="no"?>
<svg width="2861px" height="473px" viewBox="0 0 2861 473" version="1.1" xmlns="http://www.w3.org/2000/svg" xmlns:xlink="http://www.w3.org/1999/xlink" xmlns:sketch="http://www.bohemiancoding.com/sketch/ns">
    <!-- Generator: Sketch 3.4.2 (15857) - http://www.bohemiancoding.com/sketch -->
    <title>Slice 1</title>
    <desc>Created with Sketch.</desc>
    <defs></defs>
    <g id="Page-1" stroke="none" stroke-width="1" fill="none" fill-rule="evenodd" sketch:type="MSPage">
        <g id="Slides" sketch:type="MSLayerGroup" transform="translate(1227.000000, 0.000000)">
            <rect id="Rectangle-1" fill="#112009" sketch:type="MSShapeGroup" x="0" y="0" width="350.326624" height="392"></rect>
            <rect id="Rectangle-1" fill="#224011" sketch:type="MSShapeGroup" x="0" y="50" width="350.326624" height="342"></rect>
            <rect id="Rectangle-1" fill="#3C711E" sketch:type="MSShapeGroup" x="0" y="100" width="350.326624" height="292"></rect>
            <rect id="Rectangle-1-Copy" fill="#59A62C" sketch:type="MSShapeGroup" x="0" y="150" width="350.326624" height="323"></rect>
        </g>
        <path d="M21.312,338 L21.312,308.048 L197.568,308.048 C214.464084,308.048 222.912,301.808062 222.912,289.328 L222.912,263.696 C222.912,251.215938 214.464084,244.976 197.568,244.976 L78.336,244.976 C66.8159424,244.976 57.0240403,243.776012 48.96,241.376 C40.8959597,238.975988 34.3200254,235.616022 29.232,231.296 C24.1439746,226.975978 20.4480115,221.84003 18.144,215.888 C15.8399885,209.93597 14.688,203.312036 14.688,196.016 L14.688,184.208 C14.688,176.911964 15.8399885,170.28803 18.144,164.336 C20.4480115,158.38397 24.1439746,153.248022 29.232,148.928 C34.3200254,144.607978 40.8959597,141.248012 48.96,138.848 C57.0240403,136.447988 66.8159424,135.248 78.336,135.248 L249.984,135.248 L249.984,165.2 L78.336,165.2 C61.4399155,165.2 52.992,171.439938 52.992,183.92 L52.992,196.304 C52.992,208.784062 61.4399155,215.024 78.336,215.024 L197.568,215.024 C209.088058,215.024 218.87996,216.223988 226.944,218.624 C235.00804,221.024012 241.583975,224.383978 246.672,228.704 C251.760025,233.024022 255.455988,238.15997 257.76,244.112 C260.064012,250.06403 261.216,256.687964 261.216,263.984 L261.216,289.04 C261.216,296.336036 260.064012,302.95997 257.76,308.912 C255.455988,314.86403 251.760025,319.999978 246.672,324.32 C241.583975,328.640022 235.00804,331.999988 226.944,334.4 C218.87996,336.800012 209.088058,338 197.568,338 L21.312,338 Z M292.608,338 L292.608,135.248 L331.2,135.248 L331.2,308.048 L495.648,308.048 L495.648,338 L292.608,338 Z M523.872,338 L523.872,135.248 L562.176,135.248 L562.176,338 L523.872,338 Z M601.056,338 L601.056,135.248 L786.816,135.248 C801.216072,135.248 813.215952,136.495988 822.816,138.992 C832.416048,141.488012 840.095971,145.231975 845.856,150.224 C851.616029,155.216025 855.695988,161.455963 858.096,168.944 C860.496012,176.432037 861.696,185.16795 861.696,195.152 L861.696,280.112 C861.696,289.712048 860.496012,298.111964 858.096,305.312 C855.695988,312.512036 851.616029,318.511976 845.856,323.312 C840.095971,328.112024 832.416048,331.759988 822.816,334.256 C813.215952,336.752012 801.216072,338 786.816,338 L601.056,338 Z M823.392,195.152 C823.392,189.391971 822.816006,184.592019 821.664,180.752 C820.511994,176.911981 818.544014,173.840012 815.76,171.536 C812.975986,169.231988 809.232024,167.600005 804.528,166.64 C799.823976,165.679995 793.920036,165.2 786.816,165.2 L639.36,165.2 L639.36,308.048 L786.816,308.048 C793.920036,308.048 799.823976,307.568005 804.528,306.608 C809.232024,305.647995 812.975986,304.112011 815.76,302 C818.544014,299.887989 820.511994,297.008018 821.664,293.36 C822.816006,289.711982 823.392,285.200027 823.392,279.824 L823.392,195.152 Z M897.696,338 L897.696,135.248 L1106.208,135.248 L1106.208,165.2 L936,165.2 L936,215.888 L1097.568,215.888 L1097.568,245.84 L936,245.84 L936,308.048 L1106.208,308.048 L1106.208,338 L897.696,338 Z" id="Slide" fill="#000000" sketch:type="MSShapeGroup"></path>
        <path d="M1697.824,338 L1697.824,312.08 L1902.88,168.08 L1697.824,168.08 L1697.824,135.248 L1970.272,135.248 L1970.272,161.168 L1764.352,305.168 L1970.272,305.168 L1970.272,338 L1697.824,338 Z M2001.088,338 L2001.088,135.248 L2039.392,135.248 L2039.392,338 L2001.088,338 Z M2078.272,338 L2078.272,135.248 L2116.864,135.248 L2116.864,308.048 L2281.312,308.048 L2281.312,338 L2078.272,338 Z M2308.096,338 L2308.096,135.248 L2346.688,135.248 L2346.688,308.048 L2511.136,308.048 L2511.136,338 L2308.096,338 Z M2772.64,338 L2668.096,174.704 L2561.824,338 L2519.2,338 L2653.984,135.248 L2681.92,135.248 L2815.84,338 L2772.64,338 Z" id="Zilla" fill="#59A62C" sketch:type="MSShapeGroup"></path>
    </g>
</svg>
